<svg width="33" height="24" fill="none" xmlns="http://www.w3.org/2000/svg"><path d="M8.376.92C3.064.92.216 4.952.216 12.216c0 7.232 2.848 11.328 8.16 11.328s8.16-4.096 8.16-11.328C16.536 4.952 13.688.92 8.376.92zm0 3.744c2.08 0 2.976 1.664 2.976 7.552 0 5.856-.896 7.584-2.976 7.584-2.112 0-2.976-1.856-2.976-7.584s.864-7.552 2.976-7.552zM25.054.92c-2.88 0-5.28.992-7.296 2.912l2.496 2.72c1.28-1.248 2.624-1.888 4.224-1.888 1.76 0 2.88.928 2.88 2.496 0 1.792-1.184 2.816-3.104 2.816h-1.248l-.544 3.488h1.792c2.272 0 3.52.832 3.52 3.104 0 1.984-1.376 3.136-3.36 3.136-1.696 0-2.976-.64-4.416-2.08l-2.72 2.656c1.696 2.048 4.16 3.264 7.424 3.264 5.344 0 8.256-3.04 8.256-6.656 0-3.424-2.24-5.024-4.928-5.312 2.656-.768 4.224-2.528 4.224-5.152 0-3.04-2.528-5.504-7.2-5.504z" fill="#fff"/></svg>